<svg width="24" height="24" viewBox="0 0 24 24" fill="none" xmlns="http://www.w3.org/2000/svg">
<g clip-path="url(#clip0_1_3098)">
<path d="M16.5 8.19901V6.00001H7.5C6.47889 5.99991 5.47465 6.26041 4.58235 6.75685C3.69005 7.25329 2.9392 7.96924 2.40089 8.83693C1.86259 9.70462 1.55463 10.6953 1.50618 11.7153C1.45772 12.7352 1.67037 13.7507 2.124 14.6655C2.16793 14.7538 2.19404 14.8498 2.20085 14.9481C2.20767 15.0465 2.19504 15.1452 2.1637 15.2387C2.13236 15.3321 2.08292 15.4185 2.0182 15.4928C1.95348 15.5672 1.87475 15.6281 1.7865 15.672C1.69825 15.7159 1.60222 15.742 1.50387 15.7489C1.40553 15.7557 1.30681 15.743 1.21335 15.7117C1.11989 15.6804 1.03351 15.6309 0.95916 15.5662C0.884806 15.5015 0.823927 15.4228 0.78 15.3345C0.21236 14.1909 -0.0539375 12.9213 0.00632919 11.646C0.0665958 10.3707 0.451432 9.13184 1.12439 8.04685C1.79734 6.96186 2.73613 6.06663 3.85185 5.44594C4.96756 4.82525 6.22326 4.49966 7.5 4.50001H16.5V2.30101C16.5 2.22975 16.5204 2.15998 16.5586 2.09986C16.5969 2.03974 16.6514 1.99176 16.716 1.96154C16.7805 1.93132 16.8523 1.92011 16.923 1.92923C16.9936 1.93834 17.0603 1.9674 17.115 2.01301L20.655 4.96201C20.835 5.11201 20.835 5.38801 20.655 5.53801L17.115 8.48701C17.0603 8.53261 16.9936 8.56167 16.923 8.57079C16.8523 8.5799 16.7805 8.56869 16.716 8.53847C16.6514 8.50825 16.5969 8.46028 16.5586 8.40016C16.5204 8.34004 16.5 8.27026 16.5 8.19901ZM22.215 8.32801C22.393 8.23959 22.5989 8.22547 22.7874 8.28875C22.9758 8.35204 23.1314 8.48755 23.22 8.66551C23.7876 9.80912 24.0539 11.0787 23.9937 12.354C23.9334 13.6294 23.5486 14.8682 22.8756 15.9532C22.2027 17.0382 21.2639 17.9334 20.1482 18.5541C19.0324 19.1748 17.7767 19.5004 16.5 19.5H7.5V21.699C7.49997 21.7703 7.47965 21.84 7.4414 21.9002C7.40315 21.9603 7.34857 22.0083 7.28404 22.0385C7.21951 22.0687 7.1477 22.0799 7.07703 22.0708C7.00636 22.0617 6.93975 22.0326 6.885 21.987L3.345 19.038C3.3028 19.0028 3.26884 18.9588 3.24554 18.909C3.22225 18.8592 3.21017 18.805 3.21017 18.75C3.21017 18.6951 3.22225 18.6408 3.24554 18.591C3.26884 18.5412 3.3028 18.4972 3.345 18.462L6.885 15.513C6.93975 15.4674 7.00636 15.4383 7.07703 15.4292C7.1477 15.4201 7.21951 15.4313 7.28404 15.4615C7.34857 15.4918 7.40315 15.5397 7.4414 15.5999C7.47965 15.66 7.49997 15.7298 7.5 15.801V18H16.5C17.5212 18.0004 18.5257 17.74 19.4182 17.2437C20.3107 16.7474 21.0617 16.0315 21.6002 15.1637C22.1387 14.296 22.4468 13.3052 22.4953 12.2851C22.5438 11.265 22.3312 10.2494 21.8775 9.33451C21.7891 9.15646 21.775 8.9506 21.8382 8.76216C21.9015 8.57371 22.037 8.41659 22.215 8.32801Z" fill="#F5F5F5"/>
</g>
<defs>
<clipPath id="clip0_1_3098">
<rect width="24" height="24" fill="white"/>
</clipPath>
</defs>
</svg>
