<svg width="24" height="24" viewBox="0 0 24 24" fill="none" xmlns="http://www.w3.org/2000/svg">
<g clip-path="url(#clip0_1_3429)">
<mask id="path-1-inside-1_1_3429" fill="white">
<path d="M16.5 8.19901V6.00001H7.49996C6.47885 5.99991 5.47461 6.26041 4.58231 6.75685C3.69 7.25329 2.93916 7.96924 2.40085 8.83693C1.86254 9.70462 1.55459 10.6953 1.50613 11.7153C1.45768 12.7352 1.67033 13.7507 2.12396 14.6655C2.16788 14.7538 2.194 14.8498 2.20081 14.9481C2.20762 15.0465 2.195 15.1452 2.16366 15.2387C2.13232 15.3321 2.08288 15.4185 2.01816 15.4928C1.95344 15.5672 1.87471 15.6281 1.78646 15.672C1.69821 15.7159 1.60217 15.742 1.50383 15.7489C1.40549 15.7557 1.30677 15.743 1.21331 15.7117C1.11985 15.6804 1.03347 15.6309 0.959117 15.5662C0.884763 15.5015 0.823884 15.4228 0.779957 15.3345C0.212317 14.1909 -0.0539804 12.9213 0.00628627 11.646C0.0665529 10.3707 0.451389 9.13184 1.12434 8.04685C1.7973 6.96186 2.73609 6.06663 3.85181 5.44594C4.96752 4.82525 6.22322 4.49966 7.49996 4.50001H16.5V2.30101C16.5 2.22975 16.5203 2.15998 16.5586 2.09986C16.5968 2.03974 16.6514 1.99176 16.7159 1.96154C16.7805 1.93132 16.8523 1.92011 16.9229 1.92923C16.9936 1.93834 17.0602 1.9674 17.115 2.01301L20.655 4.96201C20.835 5.11201 20.835 5.38801 20.655 5.53801L17.115 8.48701C17.0602 8.53261 16.9936 8.56167 16.9229 8.57079C16.8523 8.5799 16.7805 8.56869 16.7159 8.53847C16.6514 8.50825 16.5968 8.46028 16.5586 8.40016C16.5203 8.34004 16.5 8.27026 16.5 8.19901ZM22.215 8.32801C22.393 8.23959 22.5989 8.22547 22.7873 8.28875C22.9758 8.35204 23.1314 8.48755 23.22 8.66551C23.7876 9.80912 24.0539 11.0787 23.9936 12.354C23.9334 13.6294 23.5485 14.8682 22.8756 15.9532C22.2026 17.0382 21.2638 17.9334 20.1481 18.5541C19.0324 19.1748 17.7767 19.5004 16.5 19.5H7.49996V21.699C7.49993 21.7703 7.4796 21.84 7.44136 21.9002C7.40311 21.9603 7.34852 22.0083 7.28399 22.0385C7.21946 22.0687 7.14766 22.0799 7.07699 22.0708C7.00632 22.0617 6.93971 22.0326 6.88496 21.987L3.34496 19.038C3.30275 19.0028 3.2688 18.9588 3.2455 18.909C3.2222 18.8592 3.21013 18.805 3.21013 18.75C3.21013 18.6951 3.2222 18.6408 3.2455 18.591C3.2688 18.5412 3.30275 18.4972 3.34496 18.462L6.88496 15.513C6.93971 15.4674 7.00632 15.4383 7.07699 15.4292C7.14766 15.4201 7.21946 15.4313 7.28399 15.4615C7.34852 15.4918 7.40311 15.5397 7.44136 15.5999C7.4796 15.66 7.49993 15.7298 7.49996 15.801V18H16.5C17.5212 18.0004 18.5256 17.74 19.4181 17.2437C20.3106 16.7474 21.0617 16.0315 21.6002 15.1637C22.1386 14.296 22.4467 13.3052 22.4953 12.2851C22.5438 11.265 22.3311 10.2494 21.8775 9.33451C21.789 9.15646 21.7749 8.9506 21.8382 8.76216C21.9015 8.57371 22.037 8.41659 22.215 8.32801Z"/>
</mask>
<path d="M16.5 8.19901V6.00001H7.49996C6.47885 5.99991 5.47461 6.26041 4.58231 6.75685C3.69 7.25329 2.93916 7.96924 2.40085 8.83693C1.86254 9.70462 1.55459 10.6953 1.50613 11.7153C1.45768 12.7352 1.67033 13.7507 2.12396 14.6655C2.16788 14.7538 2.194 14.8498 2.20081 14.9481C2.20762 15.0465 2.195 15.1452 2.16366 15.2387C2.13232 15.3321 2.08288 15.4185 2.01816 15.4928C1.95344 15.5672 1.87471 15.6281 1.78646 15.672C1.69821 15.7159 1.60217 15.742 1.50383 15.7489C1.40549 15.7557 1.30677 15.743 1.21331 15.7117C1.11985 15.6804 1.03347 15.6309 0.959117 15.5662C0.884763 15.5015 0.823884 15.4228 0.779957 15.3345C0.212317 14.1909 -0.0539804 12.9213 0.00628627 11.646C0.0665529 10.3707 0.451389 9.13184 1.12434 8.04685C1.7973 6.96186 2.73609 6.06663 3.85181 5.44594C4.96752 4.82525 6.22322 4.49966 7.49996 4.50001H16.5V2.30101C16.5 2.22975 16.5203 2.15998 16.5586 2.09986C16.5968 2.03974 16.6514 1.99176 16.7159 1.96154C16.7805 1.93132 16.8523 1.92011 16.9229 1.92923C16.9936 1.93834 17.0602 1.9674 17.115 2.01301L20.655 4.96201C20.835 5.11201 20.835 5.38801 20.655 5.53801L17.115 8.48701C17.0602 8.53261 16.9936 8.56167 16.9229 8.57079C16.8523 8.5799 16.7805 8.56869 16.7159 8.53847C16.6514 8.50825 16.5968 8.46028 16.5586 8.40016C16.5203 8.34004 16.5 8.27026 16.5 8.19901ZM22.215 8.32801C22.393 8.23959 22.5989 8.22547 22.7873 8.28875C22.9758 8.35204 23.1314 8.48755 23.22 8.66551C23.7876 9.80912 24.0539 11.0787 23.9936 12.354C23.9334 13.6294 23.5485 14.8682 22.8756 15.9532C22.2026 17.0382 21.2638 17.9334 20.1481 18.5541C19.0324 19.1748 17.7767 19.5004 16.5 19.5H7.49996V21.699C7.49993 21.7703 7.4796 21.84 7.44136 21.9002C7.40311 21.9603 7.34852 22.0083 7.28399 22.0385C7.21946 22.0687 7.14766 22.0799 7.07699 22.0708C7.00632 22.0617 6.93971 22.0326 6.88496 21.987L3.34496 19.038C3.30275 19.0028 3.2688 18.9588 3.2455 18.909C3.2222 18.8592 3.21013 18.805 3.21013 18.75C3.21013 18.6951 3.2222 18.6408 3.2455 18.591C3.2688 18.5412 3.30275 18.4972 3.34496 18.462L6.88496 15.513C6.93971 15.4674 7.00632 15.4383 7.07699 15.4292C7.14766 15.4201 7.21946 15.4313 7.28399 15.4615C7.34852 15.4918 7.40311 15.5397 7.44136 15.5999C7.4796 15.66 7.49993 15.7298 7.49996 15.801V18H16.5C17.5212 18.0004 18.5256 17.74 19.4181 17.2437C20.3106 16.7474 21.0617 16.0315 21.6002 15.1637C22.1386 14.296 22.4467 13.3052 22.4953 12.2851C22.5438 11.265 22.3311 10.2494 21.8775 9.33451C21.789 9.15646 21.7749 8.9506 21.8382 8.76216C21.9015 8.57371 22.037 8.41659 22.215 8.32801Z" fill="#F5F5F5"/>
<path d="M16.5 8.19901H15L15 8.19957L16.5 8.19901ZM16.5 6.00001H18V4.50001H16.5V6.00001ZM7.49996 6.00001L7.49981 7.50001H7.49996V6.00001ZM2.12396 14.6655L0.780101 15.3319L0.781119 15.3339L2.12396 14.6655ZM0.779957 15.3345L-0.563638 16.0014L-0.562881 16.0029L0.779957 15.3345ZM7.49996 4.50001L7.49955 6.00001H7.49996V4.50001ZM16.5 4.50001V6.00001H18V4.50001H16.5ZM16.5 2.30101L15 2.30044V2.30101H16.5ZM17.115 2.01301L18.075 0.860515L18.075 0.860445L17.115 2.01301ZM20.655 4.96201L21.6152 3.80968L21.615 3.80951L20.655 4.96201ZM20.655 5.53801L21.615 6.6905L21.6152 6.69034L20.655 5.53801ZM17.115 8.48701L18.075 9.63957L18.075 9.6395L17.115 8.48701ZM22.215 8.32801L21.5478 6.98455L21.5465 6.98519L22.215 8.32801ZM23.22 8.66551L24.5636 7.99861L24.5628 7.99705L23.22 8.66551ZM16.5 19.5L16.5004 18H16.5V19.5ZM7.49996 19.5V18H5.99996V19.5H7.49996ZM7.49996 21.699L8.99996 21.6996V21.699H7.49996ZM6.88496 21.987L5.92487 23.1395L5.92496 23.1396L6.88496 21.987ZM3.34496 19.038L2.38428 20.19L2.38487 20.1905L3.34496 19.038ZM3.34496 18.462L2.38487 17.3095L2.38428 17.31L3.34496 18.462ZM6.88496 15.513L5.92496 14.3604L5.92487 14.3605L6.88496 15.513ZM7.49996 15.801H8.99996V15.8004L7.49996 15.801ZM7.49996 18H5.99996V19.5H7.49996V18ZM16.5 18L16.5005 16.5H16.5V18ZM21.8775 9.33451L23.2213 8.66813L23.2209 8.66733L21.8775 9.33451ZM18 8.19901V6.00001H15V8.19901H18ZM16.5 4.50001H7.49996V7.50001H16.5V4.50001ZM7.5001 4.50001C6.22372 4.49988 4.96842 4.82551 3.85304 5.44606L5.31157 8.06764C5.9808 7.69531 6.73398 7.49993 7.49981 7.50001L7.5001 4.50001ZM3.85304 5.44606C2.73766 6.06661 1.7991 6.96155 1.12622 8.04616L3.67548 9.6277C4.07921 8.97693 4.64235 8.43997 5.31157 8.06764L3.85304 5.44606ZM1.12622 8.04616C0.453337 9.13077 0.068391 10.3692 0.00782304 11.6441L3.00444 11.7865C3.04078 11.0215 3.27175 10.2785 3.67548 9.6277L1.12622 8.04616ZM0.00782304 11.6441C-0.052745 12.9191 0.213069 14.1884 0.780103 15.3319L3.46781 13.9991C3.12759 13.313 2.9681 12.5514 3.00444 11.7865L0.00782304 11.6441ZM0.781119 15.3339C0.737269 15.2458 0.711198 15.15 0.704398 15.0518L3.69723 14.8445C3.6768 14.5496 3.5985 14.2617 3.46679 13.9971L0.781119 15.3339ZM0.704398 15.0518C0.697597 14.9536 0.7102 14.8551 0.741485 14.7618L3.58583 15.7155C3.6798 15.4353 3.71765 15.1393 3.69723 14.8445L0.704398 15.0518ZM0.741485 14.7618C0.772769 14.6685 0.822123 14.5822 0.886735 14.508L3.14958 16.4777C3.34363 16.2547 3.49187 15.9958 3.58583 15.7155L0.741485 14.7618ZM0.886735 14.508C0.951347 14.4338 1.02994 14.373 1.11804 14.3292L2.45488 17.0148C2.71947 16.8831 2.95553 16.7006 3.14958 16.4777L0.886735 14.508ZM1.11804 14.3292C1.20614 14.2853 1.30201 14.2592 1.40017 14.2524L1.60749 17.2453C1.90234 17.2248 2.19028 17.1466 2.45488 17.0148L1.11804 14.3292ZM1.40017 14.2524C1.49834 14.2456 1.59689 14.2582 1.69019 14.2895L0.736424 17.1339C1.01665 17.2278 1.31264 17.2657 1.60749 17.2453L1.40017 14.2524ZM1.69019 14.2895C1.78349 14.3208 1.86972 14.3702 1.94394 14.4348L-0.0257089 16.6976C0.197229 16.8917 0.456203 17.0399 0.736424 17.1339L1.69019 14.2895ZM1.94394 14.4348C2.01817 14.4994 2.07894 14.578 2.12279 14.6661L-0.562881 16.0029C-0.431176 16.2675 -0.248646 16.5036 -0.0257089 16.6976L1.94394 14.4348ZM2.12355 14.6676C1.66944 13.7527 1.4564 12.737 1.50461 11.7168L-1.49204 11.5752C-1.56436 13.1056 -1.2448 14.6291 -0.563637 16.0014L2.12355 14.6676ZM1.50461 11.7168C1.55283 10.6965 1.8607 9.70547 2.39906 8.83748L-0.150373 7.25622C-0.957919 8.55821 -1.41972 10.0448 -1.49204 11.5752L1.50461 11.7168ZM2.39906 8.83748C2.93742 7.96949 3.68846 7.2533 4.58103 6.75675L3.12258 4.13513C1.78372 4.87995 0.657173 5.95423 -0.150373 7.25622L2.39906 8.83748ZM4.58103 6.75675C5.4736 6.2602 6.47816 5.99973 7.49955 6.00001L7.50036 3.00001C5.96827 2.99959 4.46144 3.3903 3.12258 4.13513L4.58103 6.75675ZM7.49996 6.00001H16.5V3.00001H7.49996V6.00001ZM18 4.50001V2.30101H15V4.50001H18ZM18 2.30157C17.9999 2.51534 17.9389 2.72466 17.8242 2.90501L15.293 1.2947C15.1017 1.5953 15.0001 1.94416 15 2.30044L18 2.30157ZM17.8242 2.90501C17.7094 3.08537 17.5457 3.22931 17.3521 3.31997L16.0798 0.603114C15.7571 0.754212 15.4842 0.994108 15.293 1.2947L17.8242 2.90501ZM17.3521 3.31997C17.1585 3.41063 16.9431 3.44425 16.7311 3.41691L17.1148 0.441551C16.7615 0.395977 16.4024 0.452018 16.0798 0.603114L17.3521 3.31997ZM16.7311 3.41691C16.519 3.38956 16.3192 3.30238 16.155 3.16557L18.075 0.860445C17.8012 0.632431 17.4682 0.487126 17.1148 0.441551L16.7311 3.41691ZM16.1549 3.1655L19.6949 6.1145L21.615 3.80951L18.075 0.860515L16.1549 3.1655ZM19.6947 6.11434C19.1551 5.66465 19.1551 4.83537 19.6947 4.38567L21.6152 6.69034C22.5149 5.94065 22.5149 4.55937 21.6152 3.80968L19.6947 6.11434ZM19.6949 4.38551L16.1549 7.33452L18.075 9.6395L21.615 6.6905L19.6949 4.38551ZM16.155 7.33444C16.3192 7.19764 16.519 7.11045 16.7311 7.08311L17.1148 10.0585C17.4682 10.0129 17.8012 9.86759 18.075 9.63957L16.155 7.33444ZM16.7311 7.08311C16.9431 7.05577 17.1585 7.08939 17.3521 7.18005L16.0798 9.8969C16.4024 10.048 16.7615 10.104 17.1148 10.0585L16.7311 7.08311ZM17.3521 7.18005C17.5457 7.27071 17.7094 7.41464 17.8242 7.595L15.293 9.20531C15.4842 9.50591 15.7571 9.7458 16.0798 9.8969L17.3521 7.18005ZM17.8242 7.595C17.9389 7.77536 17.9999 7.98467 18 8.19845L15 8.19957C15.0001 8.55585 15.1017 8.90472 15.293 9.20531L17.8242 7.595ZM22.8821 9.67146C22.7041 9.75988 22.4982 9.774 22.3098 9.71072L23.2648 6.86679C22.6995 6.67694 22.0819 6.7193 21.5478 6.98455L22.8821 9.67146ZM22.3098 9.71072C22.1213 9.64743 21.9657 9.51192 21.8771 9.33396L24.5628 7.99705C24.297 7.46318 23.8302 7.05665 23.2648 6.86679L22.3098 9.71072ZM21.8764 9.33241C22.3305 10.2473 22.5435 11.263 22.4953 12.2832L25.492 12.4248C25.5643 10.8945 25.2447 9.37095 24.5636 7.99861L21.8764 9.33241ZM22.4953 12.2832C22.4471 13.3035 22.1392 14.2945 21.6009 15.1625L24.1503 16.7438C24.9578 15.4418 25.4196 13.9552 25.492 12.4248L22.4953 12.2832ZM21.6009 15.1625C21.0625 16.0305 20.3115 16.7467 19.4189 17.2433L20.8773 19.8649C22.2162 19.1201 23.3427 18.0458 24.1503 16.7438L21.6009 15.1625ZM19.4189 17.2433C18.5263 17.7398 17.5218 18.0003 16.5004 18L16.4996 21C18.0316 21.0004 19.5385 20.6097 20.8773 19.8649L19.4189 17.2433ZM16.5 18H7.49996V21H16.5V18ZM5.99996 19.5V21.699H8.99996V19.5H5.99996ZM5.99996 21.6984C6.00004 21.4847 6.06102 21.2754 6.17576 21.095L8.70695 22.7053C8.89819 22.4047 8.99982 22.0558 8.99996 21.6996L5.99996 21.6984ZM6.17576 21.095C6.29051 20.9146 6.45426 20.7707 6.64785 20.68L7.92013 23.3969C8.24278 23.2458 8.51571 23.0059 8.70695 22.7053L6.17576 21.095ZM6.64785 20.68C6.84142 20.5894 7.05684 20.5558 7.26886 20.5831L6.88511 23.5585C7.23848 23.604 7.5975 23.548 7.92013 23.3969L6.64785 20.68ZM7.26886 20.5831C7.48088 20.6105 7.68071 20.6976 7.84496 20.8344L5.92496 23.1396C6.1987 23.3676 6.53175 23.5129 6.88511 23.5585L7.26886 20.5831ZM7.84504 20.8345L4.30504 17.8855L2.38487 20.1905L5.92487 23.1395L7.84504 20.8345ZM4.30563 17.886C4.43224 17.9916 4.5341 18.1237 4.604 18.273L1.88701 19.545C2.0035 19.7938 2.17327 20.014 2.38428 20.19L4.30563 17.886ZM4.604 18.273C4.67389 18.4223 4.71013 18.5852 4.71013 18.75H1.71013C1.71013 19.0248 1.77051 19.2962 1.88701 19.545L4.604 18.273ZM4.71013 18.75C4.71013 18.9149 4.67389 19.0777 4.604 19.227L1.88701 17.955C1.77051 18.2038 1.71013 18.4752 1.71013 18.75H4.71013ZM4.604 19.227C4.5341 19.3763 4.43224 19.5084 4.30563 19.614L2.38428 17.31C2.17327 17.486 2.0035 17.7062 1.88701 17.955L4.604 19.227ZM4.30504 19.6145L7.84504 16.6655L5.92487 14.3605L2.38487 17.3095L4.30504 19.6145ZM7.84496 16.6656C7.68071 16.8024 7.48088 16.8896 7.26886 16.9169L6.88511 13.9416C6.53175 13.9871 6.1987 14.1324 5.92496 14.3604L7.84496 16.6656ZM7.26886 16.9169C7.05684 16.9443 6.84142 16.9106 6.64785 16.82L7.92013 14.1031C7.5975 13.952 7.23848 13.896 6.88511 13.9416L7.26886 16.9169ZM6.64785 16.82C6.45426 16.7293 6.29051 16.5854 6.17576 16.405L8.70695 14.7947C8.51571 14.4941 8.24278 14.2542 7.92013 14.1031L6.64785 16.82ZM6.17576 16.405C6.06102 16.2247 6.00004 16.0153 5.99996 15.8016L8.99996 15.8004C8.99982 15.4442 8.89819 15.0953 8.70695 14.7947L6.17576 16.405ZM5.99996 15.801V18H8.99996V15.801H5.99996ZM7.49996 19.5H16.5V16.5H7.49996V19.5ZM16.4994 19.5C17.776 19.5005 19.0315 19.1751 20.1471 18.5546L18.6891 15.9328C18.0197 16.305 17.2664 16.5003 16.5005 16.5L16.4994 19.5ZM20.1471 18.5546C21.2628 17.9342 22.2016 17.0393 22.8747 15.9547L20.3256 14.3728C19.9218 15.0236 19.3585 15.5605 18.6891 15.9328L20.1471 18.5546ZM22.8747 15.9547C23.5478 14.87 23.9329 13.6315 23.9936 12.3564L20.997 12.2138C20.9606 12.9789 20.7295 13.722 20.3256 14.3728L22.8747 15.9547ZM23.9936 12.3564C24.0542 11.0813 23.7884 9.81179 23.2213 8.66813L20.5336 10.0009C20.8739 10.6871 21.0334 11.4488 20.997 12.2138L23.9936 12.3564ZM23.2209 8.66733C23.3093 8.84537 23.3235 9.05123 23.2602 9.23968L20.4162 8.28463C20.2264 8.84998 20.2687 9.46756 20.534 10.0017L23.2209 8.66733ZM23.2602 9.23968C23.1986 9.42295 23.0662 9.57982 22.8834 9.67083L21.5465 6.98519C21.0078 7.25337 20.6044 7.72447 20.4162 8.28463L23.2602 9.23968Z" fill="#F1F1F1" mask="url(#path-1-inside-1_1_3429)"/>
</g>
<defs>
<clipPath id="clip0_1_3429">
<rect width="24" height="24" fill="white"/>
</clipPath>
</defs>
</svg>
