<svg width="24" height="24" viewBox="0 0 24 24" fill="none" xmlns="http://www.w3.org/2000/svg">
<g clip-path="url(#clip0_1_3094)">
<path d="M21.6733 18.5534C21.0305 17.9802 20.4676 17.3232 20 16.6C19.489 15.6019 19.183 14.5116 19.1 13.3934V10.1C19.1044 8.34376 18.4673 6.64633 17.3085 5.32666C16.1496 4.007 14.5488 3.15592 12.8067 2.93335V2.07335C12.8067 1.83731 12.7129 1.61093 12.546 1.44402C12.3791 1.27712 12.1527 1.18335 11.9167 1.18335C11.6806 1.18335 11.4542 1.27712 11.2873 1.44402C11.1204 1.61093 11.0267 1.83731 11.0267 2.07335V2.94668C9.30017 3.1853 7.71865 4.04152 6.57502 5.35675C5.43139 6.67199 4.80315 8.35711 4.80667 10.1V13.3934C4.7237 14.5116 4.41769 15.6019 3.90667 16.6C3.44725 17.3216 2.89346 17.9785 2.26 18.5534C2.18889 18.6158 2.13189 18.6927 2.09281 18.7789C2.05373 18.8651 2.03345 18.9587 2.03333 19.0534V19.96C2.03333 20.1368 2.10357 20.3064 2.22859 20.4314C2.35362 20.5564 2.52319 20.6267 2.7 20.6267H21.2333C21.4101 20.6267 21.5797 20.5564 21.7047 20.4314C21.8298 20.3064 21.9 20.1368 21.9 19.96V19.0534C21.8999 18.9587 21.8796 18.8651 21.8405 18.7789C21.8014 18.6927 21.7444 18.6158 21.6733 18.5534ZM3.42 19.2934C4.04013 18.694 4.58624 18.0226 5.04667 17.2934C5.69053 16.088 6.06579 14.7575 6.14667 13.3934V10.1C6.12023 9.31871 6.25128 8.54007 6.53203 7.81046C6.81278 7.08086 7.23747 6.41521 7.78083 5.85315C8.32419 5.2911 8.97509 4.84413 9.69479 4.53887C10.4145 4.2336 11.1882 4.07629 11.97 4.07629C12.7518 4.07629 13.5255 4.2336 14.2452 4.53887C14.9649 4.84413 15.6158 5.2911 16.1592 5.85315C16.7025 6.41521 17.1272 7.08086 17.408 7.81046C17.6887 8.54007 17.8198 9.31871 17.7933 10.1V13.3934C17.8742 14.7575 18.2495 16.088 18.8933 17.2934C19.3538 18.0226 19.8999 18.694 20.52 19.2934H3.42Z" fill="#F5F5F5"/>
<path d="M12 22.8534C12.42 22.8437 12.823 22.6858 13.1377 22.4077C13.4525 22.1295 13.6588 21.749 13.72 21.3334H10.2133C10.2763 21.7602 10.4922 22.1497 10.8209 22.4293C11.1495 22.7089 11.5685 22.8596 12 22.8534Z" fill="#F5F5F5"/>
</g>
<defs>
<clipPath id="clip0_1_3094">
<rect width="24" height="24" fill="white"/>
</clipPath>
</defs>
</svg>
