<svg width="24" height="24" viewBox="0 0 24 24" fill="none" xmlns="http://www.w3.org/2000/svg">
<g clip-path="url(#clip0_1_3425)">
<path d="M21.4515 18.8022L21.4533 18.8038C21.4889 18.835 21.5174 18.8735 21.5369 18.9166L21.8405 18.7789L21.5369 18.9166C21.5565 18.9597 21.5666 19.0064 21.5667 19.0538V19.96C21.5667 20.0484 21.5315 20.1332 21.469 20.1957C21.4065 20.2582 21.3217 20.2934 21.2333 20.2934H2.69999C2.61159 20.2934 2.5268 20.2582 2.46429 20.1957C2.40178 20.1332 2.36666 20.0484 2.36666 19.96V19.0536C2.36674 19.0063 2.37688 18.9596 2.3964 18.9166C2.41594 18.8735 2.44444 18.835 2.47999 18.8038L2.48002 18.8038L2.484 18.8002C3.13945 18.2054 3.71247 17.5257 4.18784 16.779L4.19624 16.7658L4.20336 16.7519C4.73467 15.7142 5.05282 14.5806 5.13908 13.418L5.13999 13.4057V13.3934L5.13999 10.1L5.13999 10.0993C5.13664 8.43706 5.73582 6.82987 6.82655 5.57547C7.91728 4.32107 9.42566 3.50446 11.0723 3.27688L11.36 3.23711V2.94668V2.07335C11.36 1.92571 11.4186 1.78412 11.523 1.67973C11.6274 1.57533 11.769 1.51668 11.9167 1.51668C12.0643 1.51668 12.2059 1.57533 12.3103 1.67973C12.4147 1.78412 12.4733 1.92571 12.4733 2.07335V2.93335V3.22681L12.7644 3.264C14.4259 3.47627 15.9528 4.28798 17.058 5.54661C18.1633 6.80524 18.7709 8.42415 18.7667 10.0992V10.1V13.3934V13.4057L18.7676 13.418C18.8538 14.5806 19.172 15.7142 19.7033 16.7519L19.7109 16.7669L19.7201 16.781C20.2039 17.5293 20.7863 18.2092 21.4515 18.8022ZM3.18834 19.0537L2.59543 19.6267H3.41999H20.52H21.3446L20.7516 19.0537C20.1536 18.4756 19.6265 17.8284 19.1817 17.1256C18.5655 15.9684 18.2057 14.6921 18.1267 13.3834V10.1056C18.1538 9.28149 18.0152 8.46032 17.7191 7.69075C17.4222 6.91941 16.9733 6.21568 16.3988 5.62147C15.8244 5.02726 15.1362 4.55472 14.3754 4.232C13.6145 3.90927 12.7965 3.74295 11.97 3.74295C11.1435 3.74295 10.3255 3.90927 9.56462 4.232C8.80375 4.55472 8.11561 5.02726 7.54117 5.62147C6.96673 6.21568 6.51773 6.91941 6.22093 7.69075C5.9248 8.46032 5.7862 9.28149 5.81333 10.1056V13.3834C5.73433 14.6921 5.37451 15.9684 4.75833 17.1256C4.31347 17.8284 3.78643 18.4756 3.18834 19.0537Z" fill="#F5F5F5" stroke="#F1F1F1" stroke-width="0.666667"/>
<path d="M12.917 22.1578C12.6616 22.3836 12.3346 22.5118 11.9938 22.52C11.6436 22.5248 11.3037 22.4023 11.0369 22.1754C10.8721 22.0352 10.7422 21.861 10.6548 21.6666H13.2787C13.195 21.8528 13.0723 22.0206 12.917 22.1578Z" fill="#F5F5F5" stroke="#F1F1F1" stroke-width="0.666667"/>
</g>
<defs>
<clipPath id="clip0_1_3425">
<rect width="24" height="24" fill="white"/>
</clipPath>
</defs>
</svg>
