<svg width="24" height="25" viewBox="0 0 24 25" fill="none" xmlns="http://www.w3.org/2000/svg">
<g clip-path="url(#clip0_1_2239)">
<path d="M14.8487 16.593C17.2577 16.593 19.2173 14.6334 19.2173 12.2256C19.2173 9.81544 17.2571 7.85584 14.8487 7.85584C12.4397 7.85584 10.4795 9.81604 10.4795 12.2256C10.4795 14.6334 12.4397 16.593 14.8487 16.593ZM14.8487 8.57464C15.8163 8.57607 16.7437 8.96118 17.4277 9.6455C18.1117 10.3298 18.4964 11.2575 18.4973 12.225C18.4962 13.1923 18.1114 14.1196 17.4274 14.8035C16.7434 15.4875 15.816 15.8721 14.8487 15.873C13.8814 15.8721 12.9539 15.4875 12.2698 14.8036C11.5857 14.1197 11.2008 13.1924 11.1995 12.225C11.2001 10.2126 12.8369 8.57464 14.8487 8.57464ZM22.8269 20.7282C22.6355 17.3178 19.5371 17.109 19.4861 17.1072L10.1909 17.1078C10.1597 17.109 7.06071 17.3184 6.86991 20.748V23.3328C6.86991 23.4283 6.90784 23.5199 6.97535 23.5874C7.04286 23.6549 7.13443 23.6928 7.22991 23.6928H22.4669C22.5624 23.6928 22.654 23.6549 22.7215 23.5874C22.789 23.5199 22.8269 23.4283 22.8269 23.3328V20.7282ZM22.1075 22.9728H7.59051L7.58991 20.7678C7.74351 18.0108 10.1303 17.832 10.2107 17.8266L19.4651 17.826C19.5665 17.8326 21.9527 18.0114 22.1069 20.748L22.1075 22.9728ZM7.57071 12.2988H7.57311C8.31291 12.2934 8.95371 12.0282 9.47751 11.5092C10.0019 10.9854 10.2671 10.3446 10.2671 9.60364C10.2671 8.85904 10.0013 8.21704 9.47751 7.69744C8.95311 7.17364 8.31231 6.90784 7.57191 6.90784C6.82731 6.90784 6.18531 7.17364 5.66691 7.69684C5.14251 8.21704 4.87671 8.85904 4.87671 9.60364C4.87671 10.344 5.14251 10.9854 5.66631 11.5086C6.18591 12.0282 6.82611 12.294 7.57071 12.2988ZM5.98611 8.01544C6.42411 7.57324 6.94371 7.35784 7.57251 7.35784C8.19771 7.35784 8.71731 7.57324 9.16071 8.01724C9.60291 8.45524 9.81831 8.97484 9.81831 9.60424C9.81831 10.23 9.60291 10.749 9.16071 11.1906C8.71851 11.6292 8.19831 11.8452 7.57251 11.85C6.94251 11.8452 6.42291 11.6304 5.98491 11.1912C5.54211 10.7496 5.32671 10.23 5.32671 9.60424C5.32671 8.97424 5.54211 8.45524 5.98611 8.01544Z" fill="black"/>
<path d="M7.22299 10.6234C7.26363 10.6591 7.3159 10.6787 7.36999 10.6786C7.40217 10.6785 7.43396 10.6716 7.46324 10.6582C7.49252 10.6449 7.51862 10.6255 7.53979 10.6012L9.06319 8.85522C9.10233 8.81027 9.12202 8.75161 9.11791 8.69214C9.1138 8.63267 9.08624 8.57727 9.04129 8.53812C8.99633 8.49898 8.93767 8.47929 8.8782 8.4834C8.81873 8.48751 8.76333 8.51507 8.72419 8.56002L7.34839 10.1368L6.67159 9.55182C6.64929 9.53252 6.62341 9.5178 6.59542 9.50849C6.56743 9.49919 6.53788 9.49549 6.50847 9.49761C6.47905 9.49973 6.45033 9.50762 6.42397 9.52083C6.3976 9.53405 6.37409 9.55232 6.35479 9.57462C6.33548 9.59692 6.32076 9.6228 6.31146 9.65079C6.30216 9.67878 6.29846 9.70833 6.30058 9.73775C6.30269 9.76716 6.31058 9.79588 6.3238 9.82224C6.33701 9.84861 6.35529 9.87212 6.37759 9.89142L7.22299 10.6234ZM12.0776 6.81342C12.0776 6.81342 12.182 6.66342 12.4484 6.57342C12.6542 6.50382 12.7856 6.48282 12.7856 6.48282V4.73142C12.7856 4.27062 12.4448 3.87102 11.9252 3.87102H10.6088V4.57902H12.0776V6.81342ZM5.39539 5.60922H9.73999C9.96199 5.60922 10.1702 5.45322 10.1702 5.17062V4.14342C10.1702 3.75222 9.85879 3.43242 9.46819 3.43242H9.30139C9.10819 2.68242 8.37499 2.13342 7.56319 2.13342C6.75139 2.13342 6.01819 2.68242 5.82559 3.43242H5.66719C5.27659 3.43242 4.95679 3.75222 4.95679 4.14342V5.17062C4.95679 5.42502 5.14219 5.60922 5.39539 5.60922ZM7.56319 3.00222C8.04439 3.00222 8.43199 3.38982 8.43199 3.87102C8.43199 4.35222 8.04439 4.73982 7.56319 4.73982C7.44903 4.74006 7.33595 4.71775 7.23043 4.67417C7.12492 4.6306 7.02905 4.56661 6.94832 4.48589C6.8676 4.40516 6.80361 4.30929 6.76004 4.20378C6.71646 4.09826 6.69415 3.98518 6.69439 3.87102C6.69439 3.38982 7.08199 3.00222 7.56319 3.00222Z" fill="black"/>
<path d="M9.57113 14.4679H3.05753V4.57873H4.52633V3.87073H3.21053C2.74973 3.87073 2.35913 4.26973 2.35913 4.73113V14.3239C2.35913 14.7847 2.74973 15.1663 3.21053 15.1663H10.2473C10.2473 15.1669 9.71453 14.9461 9.57113 14.4679Z" fill="black"/>
</g>
<defs>
<clipPath id="clip0_1_2239">
<rect width="24" height="24" fill="white" transform="translate(0 0.933411)"/>
</clipPath>
</defs>
</svg>
