<svg width="24" height="25" viewBox="0 0 24 25" fill="none" xmlns="http://www.w3.org/2000/svg">
<g clip-path="url(#clip0_1_2234)">
<path d="M23.25 6.93341C23.25 6.63341 23.1 6.40841 22.875 6.25841L17.625 3.25841C17.475 3.18341 17.4 3.18341 17.25 3.18341C17.1 3.18341 17.025 3.18341 16.875 3.25841L12 6.03341L7.125 3.25841C6.975 3.18341 6.9 3.18341 6.75 3.18341C6.6 3.18341 6.525 3.18341 6.375 3.25841L1.125 6.25841C0.9 6.40841 0.75 6.63341 0.75 6.93341V21.9334C0.75 22.3834 1.05 22.6834 1.5 22.6834C1.65 22.6834 1.725 22.6084 1.875 22.6084L6.75 19.8334L11.625 22.6084C11.775 22.6834 11.85 22.6834 12 22.6834C12.15 22.6834 12.225 22.6834 12.375 22.6084L17.25 19.8334L22.125 22.6084C22.2 22.6834 22.35 22.6834 22.5 22.6834C22.95 22.6834 23.25 22.3834 23.25 21.9334V6.93341ZM2.25 7.38341L6 5.20841V18.4834L2.25 20.6584V7.38341ZM11.25 20.6584L7.5 18.4834V5.20841L11.25 7.38341V20.6584ZM16.5 18.4834L12.75 20.6584V7.38341L16.5 5.20841V18.4834ZM18 18.4834V5.20841L21.75 7.38341V20.6584L18 18.4834Z" fill="black"/>
</g>
<defs>
<clipPath id="clip0_1_2234">
<rect width="24" height="24" fill="white" transform="translate(0 0.933411)"/>
</clipPath>
</defs>
</svg>
