<svg width="14" height="13" viewBox="0 0 14 13" fill="none" xmlns="http://www.w3.org/2000/svg">
<path d="M3.29741 10.2457H4.0529L9.23534 5.06326L8.47984 4.30777L3.29741 9.4902V10.2457ZM2.23706 11.306V9.05281L9.23534 2.06779C9.34137 1.97059 9.45845 1.89548 9.58658 1.84247C9.7147 1.78945 9.84945 1.76294 9.99083 1.76294C10.1322 1.76294 10.2692 1.78945 10.4017 1.84247C10.5343 1.89548 10.6491 1.97501 10.7463 2.08104L11.4753 2.82328C11.5813 2.92048 11.6587 3.03535 11.7073 3.1679C11.7559 3.30044 11.7802 3.43298 11.7802 3.56553C11.7802 3.70691 11.7559 3.84166 11.7073 3.96978C11.6587 4.09791 11.5813 4.21499 11.4753 4.32102L4.49029 11.306H2.23706ZM8.85096 4.69214L8.47984 4.30777L9.23534 5.06326L8.85096 4.69214Z" fill="#474747"/>
</svg>
