<svg width="24" height="25" viewBox="0 0 24 25" fill="none" xmlns="http://www.w3.org/2000/svg">
<path d="M22.4231 9.61812C22.3294 9.32986 22.1524 9.0758 21.9145 8.88795C21.6766 8.7001 21.3884 8.58686 21.0863 8.56249L15.555 8.11624L13.4194 2.95155C13.3039 2.67013 13.1073 2.42941 12.8547 2.26C12.602 2.09058 12.3047 2.00012 12.0005 2.00012C11.6963 2.00012 11.3989 2.09058 11.1463 2.26C10.8936 2.42941 10.6971 2.67013 10.5816 2.95155L8.44782 8.1153L2.91375 8.56249C2.61111 8.58809 2.32274 8.70243 2.08479 8.89118C1.84684 9.07994 1.66988 9.33472 1.57609 9.62361C1.4823 9.91249 1.47584 10.2226 1.55753 10.5152C1.63922 10.8077 1.80542 11.0696 2.03531 11.2681L6.25407 14.9084L4.96875 20.3516C4.89687 20.6473 4.91447 20.9577 5.01932 21.2434C5.12417 21.5291 5.31154 21.7771 5.55765 21.9562C5.80376 22.1352 6.09751 22.237 6.4016 22.2488C6.7057 22.2605 7.00643 22.1817 7.26563 22.0222L12 19.1084L16.7372 22.0222C16.9965 22.1798 17.2966 22.2571 17.5998 22.2445C17.9029 22.2318 18.1955 22.1298 18.4408 21.9512C18.6861 21.7725 18.873 21.5254 18.9781 21.2407C19.0832 20.9561 19.1017 20.6467 19.0313 20.3516L17.7413 14.9075L21.96 11.2672C22.1918 11.069 22.3595 10.8065 22.4419 10.513C22.5244 10.2194 22.5178 9.90796 22.4231 9.61812Z" fill="white"/>
</svg>
