<svg width="24" height="24" viewBox="0 0 24 24" fill="none" xmlns="http://www.w3.org/2000/svg">
<path d="M22.4231 9.11812C22.3293 8.82986 22.1523 8.5758 21.9144 8.38795C21.6765 8.2001 21.3883 8.08686 21.0862 8.06249L15.5549 7.61624L13.4193 2.45155C13.3038 2.17013 13.1073 1.92941 12.8546 1.76C12.6019 1.59058 12.3046 1.50012 12.0004 1.50012C11.6962 1.50012 11.3989 1.59058 11.1462 1.76C10.8936 1.92941 10.697 2.17013 10.5815 2.45155L8.44775 7.6153L2.91369 8.06249C2.61104 8.08809 2.32268 8.20243 2.08473 8.39118C1.84678 8.57994 1.66982 8.83472 1.57603 9.12361C1.48224 9.41249 1.47578 9.72263 1.55747 10.0152C1.63916 10.3077 1.80536 10.5696 2.03525 10.7681L6.254 14.4084L4.96869 19.8516C4.89681 20.1473 4.91441 20.4577 5.01926 20.7434C5.12411 21.0291 5.31148 21.2771 5.55759 21.4562C5.8037 21.6352 6.09745 21.737 6.40154 21.7488C6.70564 21.7605 7.00637 21.6817 7.26557 21.5222L11.9999 18.6084L16.7371 21.5222C16.9964 21.6798 17.2965 21.7571 17.5997 21.7445C17.9028 21.7318 18.1955 21.6298 18.4408 21.4512C18.686 21.2725 18.873 21.0254 18.978 20.7407C19.0831 20.4561 19.1016 20.1467 19.0312 19.8516L17.7412 14.4075L21.9599 10.7672C22.1917 10.569 22.3594 10.3065 22.4419 10.013C22.5243 9.71939 22.5178 9.40796 22.4231 9.11812Z" fill="white"/>
</svg>
