<svg width="24" height="24" viewBox="0 0 24 24" fill="none" xmlns="http://www.w3.org/2000/svg">
<path d="M22.4231 9.11812C22.3293 8.82986 22.1523 8.5758 21.9144 8.38795C21.6765 8.2001 21.3883 8.08686 21.0862 8.06249L15.5549 7.61624L13.4193 2.45155C13.3038 2.17013 13.1072 1.92941 12.8546 1.76C12.6019 1.59058 12.3046 1.50012 12.0004 1.50012C11.6962 1.50012 11.3989 1.59058 11.1462 1.76C10.8936 1.92941 10.697 2.17013 10.5815 2.45155L8.44775 7.61531L2.91369 8.06249C2.61104 8.08809 2.32268 8.20243 2.08473 8.39119C1.84678 8.57994 1.66982 8.83472 1.57603 9.12361C1.48224 9.41249 1.47578 9.72263 1.55747 10.0152C1.63916 10.3077 1.80536 10.5696 2.03525 10.7681L6.254 14.4084L4.96869 19.8516C4.89681 20.1473 4.91441 20.4577 5.01926 20.7434C5.12411 21.0291 5.31148 21.2771 5.55759 21.4562C5.8037 21.6352 6.09745 21.737 6.40154 21.7488C6.70564 21.7605 7.00637 21.6817 7.26557 21.5222L11.9999 18.6084L16.7371 21.5222C16.9964 21.6798 17.2965 21.7571 17.5997 21.7445C17.9028 21.7318 18.1955 21.6298 18.4408 21.4512C18.686 21.2726 18.873 21.0254 18.978 20.7407C19.0831 20.4561 19.1016 20.1467 19.0312 19.8516L17.7412 14.4075L21.9599 10.7672C22.1917 10.569 22.3594 10.3065 22.4419 10.013C22.5243 9.71939 22.5178 9.40796 22.4231 9.11812ZM20.9849 9.63093L16.4193 13.5684C16.3152 13.6582 16.2377 13.7748 16.1954 13.9056C16.1531 14.0364 16.1475 14.1763 16.1793 14.31L17.5743 20.1975C17.5779 20.2056 17.5783 20.2148 17.5753 20.2232C17.5724 20.2315 17.5663 20.2385 17.5584 20.2425C17.5415 20.2556 17.5368 20.2528 17.5228 20.2425L12.3928 17.0878C12.2746 17.0152 12.1386 16.9767 11.9999 16.9767C11.8612 16.9767 11.7253 17.0152 11.6071 17.0878L6.47713 20.2444C6.46307 20.2528 6.45932 20.2556 6.4415 20.2444C6.43359 20.2403 6.42753 20.2334 6.42456 20.225C6.4216 20.2167 6.42196 20.2075 6.42557 20.1994L7.82057 14.3119C7.85236 14.1781 7.84679 14.0382 7.80446 13.9075C7.76214 13.7767 7.68468 13.66 7.58057 13.5703L3.01494 9.6328C3.00369 9.62343 2.99338 9.61499 3.00275 9.58593C3.01213 9.55687 3.01963 9.56062 3.03369 9.55874L9.02619 9.07499C9.16364 9.0632 9.29517 9.01373 9.40632 8.93203C9.51747 8.85032 9.60393 8.73954 9.65619 8.61187L11.9643 3.02343C11.9718 3.00749 11.9746 2.99999 11.9971 2.99999C12.0196 2.99999 12.0224 3.00749 12.0299 3.02343L14.3437 8.61187C14.3964 8.73958 14.4835 8.85025 14.5951 8.93164C14.7068 9.01303 14.8388 9.06199 14.9765 9.07312L20.969 9.55687C20.9831 9.55687 20.9915 9.55687 20.9999 9.58405C21.0084 9.61124 20.9999 9.62156 20.9849 9.63093Z" fill="white"/>
</svg>
