<svg width="24" height="24" viewBox="0 0 24 24" fill="none" xmlns="http://www.w3.org/2000/svg">
<path d="M22.4231 9.11812C22.3294 8.82986 22.1524 8.5758 21.9145 8.38795C21.6766 8.2001 21.3884 8.08686 21.0863 8.06249L15.555 7.61624L13.4194 2.45155C13.3039 2.17013 13.1073 1.92941 12.8547 1.76C12.602 1.59058 12.3047 1.50012 12.0005 1.50012C11.6963 1.50012 11.3989 1.59058 11.1463 1.76C10.8936 1.92941 10.6971 2.17013 10.5816 2.45155L8.44782 7.6153L2.91375 8.06249C2.61111 8.08809 2.32274 8.20243 2.08479 8.39118C1.84684 8.57994 1.66988 8.83472 1.57609 9.12361C1.4823 9.41249 1.47584 9.72263 1.55753 10.0152C1.63922 10.3077 1.80542 10.5696 2.03531 10.7681L6.25407 14.4084L4.96875 19.8516C4.89687 20.1473 4.91447 20.4577 5.01932 20.7434C5.12417 21.0291 5.31154 21.2771 5.55765 21.4562C5.80376 21.6352 6.09751 21.737 6.4016 21.7488C6.7057 21.7605 7.00643 21.6817 7.26563 21.5222L12 18.6084L16.7372 21.5222C16.9965 21.6798 17.2966 21.7571 17.5998 21.7445C17.9029 21.7318 18.1955 21.6298 18.4408 21.4512C18.6861 21.2725 18.873 21.0254 18.9781 20.7407C19.0832 20.4561 19.1017 20.1467 19.0313 19.8516L17.7413 14.4075L21.96 10.7672C22.1918 10.569 22.3595 10.3065 22.4419 10.013C22.5244 9.71939 22.5178 9.40796 22.4231 9.11812Z" fill="black"/>
</svg>
