<svg width="24" height="25" viewBox="0 0 24 25" fill="none" xmlns="http://www.w3.org/2000/svg">
<path d="M22.4231 9.61812C22.3294 9.32986 22.1524 9.0758 21.9145 8.88795C21.6766 8.7001 21.3884 8.58686 21.0863 8.56249L15.555 8.11624L13.4194 2.95155C13.3039 2.67013 13.1073 2.42941 12.8547 2.26C12.602 2.09058 12.3047 2.00012 12.0005 2.00012C11.6963 2.00012 11.3989 2.09058 11.1463 2.26C10.8936 2.42941 10.6971 2.67013 10.5816 2.95155L8.44781 8.11531L2.91375 8.56249C2.61111 8.58809 2.32274 8.70243 2.08479 8.89119C1.84684 9.07994 1.66988 9.33472 1.57609 9.62361C1.4823 9.91249 1.47584 10.2226 1.55753 10.5152C1.63922 10.8077 1.80542 11.0696 2.03531 11.2681L6.25406 14.9084L4.96875 20.3516C4.89687 20.6473 4.91447 20.9577 5.01932 21.2434C5.12417 21.5291 5.31154 21.7771 5.55765 21.9562C5.80376 22.1352 6.09751 22.237 6.4016 22.2488C6.7057 22.2605 7.00643 22.1817 7.26563 22.0222L12 19.1084L16.7372 22.0222C16.9965 22.1798 17.2966 22.2571 17.5997 22.2445C17.9029 22.2318 18.1955 22.1298 18.4408 21.9512C18.6861 21.7726 18.873 21.5254 18.9781 21.2407C19.0832 20.9561 19.1017 20.6467 19.0313 20.3516L17.7413 14.9075L21.96 11.2672C22.1918 11.069 22.3595 10.8065 22.4419 10.513C22.5244 10.2194 22.5178 9.90796 22.4231 9.61812ZM20.985 10.1309L16.4194 14.0684C16.3153 14.1582 16.2378 14.2748 16.1955 14.4056C16.1532 14.5364 16.1476 14.6763 16.1794 14.81L17.5744 20.6975C17.578 20.7056 17.5783 20.7148 17.5754 20.7232C17.5724 20.7315 17.5664 20.7385 17.5584 20.7425C17.5416 20.7556 17.5369 20.7528 17.5228 20.7425L12.3928 17.5878C12.2747 17.5152 12.1387 17.4767 12 17.4767C11.8613 17.4767 11.7253 17.5152 11.6072 17.5878L6.47719 20.7444C6.46313 20.7528 6.45938 20.7556 6.44156 20.7444C6.43365 20.7403 6.42759 20.7334 6.42462 20.725C6.42166 20.7167 6.42202 20.7075 6.42563 20.6994L7.82063 14.8119C7.85242 14.6781 7.84685 14.5382 7.80452 14.4075C7.7622 14.2767 7.68475 14.16 7.58063 14.0703L3.015 10.1328C3.00375 10.1234 2.99344 10.115 3.00281 10.0859C3.01219 10.0569 3.01969 10.0606 3.03375 10.0587L9.02625 9.57499C9.1637 9.5632 9.29523 9.51373 9.40638 9.43203C9.51753 9.35032 9.60399 9.23954 9.65625 9.11187L11.9644 3.52343C11.9719 3.50749 11.9747 3.49999 11.9972 3.49999C12.0197 3.49999 12.0225 3.50749 12.03 3.52343L14.3438 9.11187C14.3965 9.23958 14.4835 9.35025 14.5952 9.43164C14.7068 9.51303 14.8388 9.56199 14.9766 9.57312L20.9691 10.0569C20.9831 10.0569 20.9916 10.0569 21 10.0841C21.0084 10.1112 21 10.1216 20.985 10.1309Z" fill="white"/>
</svg>
