<svg width="24" height="24" viewBox="0 0 24 24" fill="none" xmlns="http://www.w3.org/2000/svg">
<path d="M22.4231 9.11812C22.3294 8.82986 22.1524 8.5758 21.9145 8.38795C21.6766 8.2001 21.3884 8.08686 21.0863 8.06249L15.555 7.61624L13.4194 2.45155C13.3039 2.17013 13.1073 1.92941 12.8547 1.76C12.602 1.59058 12.3047 1.50012 12.0005 1.50012C11.6963 1.50012 11.3989 1.59058 11.1463 1.76C10.8936 1.92941 10.6971 2.17013 10.5816 2.45155L8.44781 7.61531L2.91375 8.06249C2.61111 8.08809 2.32274 8.20243 2.08479 8.39119C1.84684 8.57994 1.66988 8.83472 1.57609 9.12361C1.4823 9.41249 1.47584 9.72263 1.55753 10.0152C1.63922 10.3077 1.80542 10.5696 2.03531 10.7681L6.25406 14.4084L4.96875 19.8516C4.89687 20.1473 4.91447 20.4577 5.01932 20.7434C5.12417 21.0291 5.31154 21.2771 5.55765 21.4562C5.80376 21.6352 6.09751 21.737 6.4016 21.7488C6.7057 21.7605 7.00643 21.6817 7.26563 21.5222L12 18.6084L16.7372 21.5222C16.9965 21.6798 17.2966 21.7571 17.5997 21.7445C17.9029 21.7318 18.1955 21.6298 18.4408 21.4512C18.6861 21.2726 18.873 21.0254 18.9781 20.7407C19.0832 20.4561 19.1017 20.1467 19.0313 19.8516L17.7413 14.4075L21.96 10.7672C22.1918 10.569 22.3595 10.3065 22.4419 10.013C22.5244 9.71939 22.5178 9.40796 22.4231 9.11812ZM20.985 9.63093L16.4194 13.5684C16.3153 13.6582 16.2378 13.7748 16.1955 13.9056C16.1532 14.0364 16.1476 14.1763 16.1794 14.31L17.5744 20.1975C17.578 20.2056 17.5783 20.2148 17.5754 20.2232C17.5724 20.2315 17.5664 20.2385 17.5584 20.2425C17.5416 20.2556 17.5369 20.2528 17.5228 20.2425L12.3928 17.0878C12.2747 17.0152 12.1387 16.9767 12 16.9767C11.8613 16.9767 11.7253 17.0152 11.6072 17.0878L6.47719 20.2444C6.46313 20.2528 6.45938 20.2556 6.44156 20.2444C6.43365 20.2403 6.42759 20.2334 6.42462 20.225C6.42166 20.2167 6.42202 20.2075 6.42563 20.1994L7.82063 14.3119C7.85242 14.1781 7.84685 14.0382 7.80452 13.9075C7.7622 13.7767 7.68475 13.66 7.58063 13.5703L3.015 9.6328C3.00375 9.62343 2.99344 9.61499 3.00281 9.58593C3.01219 9.55687 3.01969 9.56062 3.03375 9.55874L9.02625 9.07499C9.1637 9.0632 9.29523 9.01373 9.40638 8.93203C9.51753 8.85032 9.60399 8.73954 9.65625 8.61187L11.9644 3.02343C11.9719 3.00749 11.9747 2.99999 11.9972 2.99999C12.0197 2.99999 12.0225 3.00749 12.03 3.02343L14.3438 8.61187C14.3965 8.73958 14.4835 8.85025 14.5952 8.93164C14.7068 9.01303 14.8388 9.06199 14.9766 9.07312L20.9691 9.55687C20.9831 9.55687 20.9916 9.55687 21 9.58405C21.0084 9.61124 21 9.62156 20.985 9.63093Z" fill="black"/>
</svg>
